<svg height="512pt" viewBox="-31 0 512 512.00064" width="512pt" xmlns="http://www.w3.org/2000/svg"><path d="m75 512h300.003906c24.8125 0 45-20.1875 45-45v-17.578125c17.457032-6.195313 30-22.867187 30-42.421875v-30c0-24.8125-20.1875-45-45-45h-109.191406c-1.871094-6.34375-9.453125-24.542969-14.148438-55.753906-5.617187-37.375 4.652344-77.902344 27.472657-108.417969 13.648437-18.253906 20.867187-39.980469 20.867187-62.828125 0-64.679688-58.179687-114.902344-123.945312-103.335938-42.203125 7.421876-76.898438 42.070313-84.367188 84.261719-4.753906 26.847657.707032 54.007813 15.335938 76.414063 17.96875 27.515625 37.980468 69.628906 31.296875 113.992187-4.699219 31.1875-12.246094 49.261719-14.132813 55.667969h-109.191406c-24.8125 0-45 20.1875-45 45v30c0 19.554688 12.542969 36.226562 30 42.417969v17.582031c0 24.8125 20.1875 45 45 45zm300.003906-30h-300.003906c-8.269531 0-15-6.730469-15-15v-15h330.003906v15c0 8.269531-6.730468 15-15 15zm-223.773437-390.84375c5.316406-30.011719 30-54.664062 60.023437-59.945312 48.125-8.464844 88.75 28.390624 88.75 73.789062 0 5.09375-.503906 10.109375-1.492187 15h-146.976563c-1.894531-9.347656-2.027344-19.113281-.304687-28.84375zm13.515625 58.832031h120.265625c-27.859375 37.328125-39.890625 84.964844-33.011719 130.71875 2.636719 17.539063 6.699219 34.824219 11.75 49.972657l.441406 1.320312h-78.378906c.246094-.871094 7.703125-21.53125 12.175781-51.195312 7.757813-51.480469-13.160156-98.894532-33.242187-130.816407zm-134.746094 227.011719c0-8.269531 6.730469-15 15-15h360.003906c8.269532 0 15 6.730469 15 15v30c0 8.269531-6.730468 15-15 15h-360.003906c-8.269531 0-15-6.730469-15-15zm0 0"/></svg>